<svg width="548" height="409" viewBox="0 0 548 409" fill="none" xmlns="http://www.w3.org/2000/svg">
<path opacity="0.6" d="M318.251 72.1796C283.183 70.9183 249.758 59.2016 217.888 46.3852C186.019 33.5688 154.431 19.3659 120.185 12.5746C98.1664 8.20173 72.9852 7.5867 55.2475 19.8037C38.1746 31.5569 32.6599 51.8474 29.6935 70.6734C27.4625 84.8397 26.1682 99.7462 32.2671 113.011C36.5126 122.215 44.0469 129.955 49.2594 138.774C67.3899 169.457 54.5726 207.297 34.9212 237.282C25.7048 251.354 15.0129 264.744 7.90167 279.708C0.790478 294.672 -2.50323 311.814 3.72158 327.075C9.89099 342.19 24.5868 353.563 40.5114 361.553C72.8542 377.767 110.964 382.406 148.126 385.064C230.388 390.886 313.094 388.363 395.572 385.841C426.097 384.903 456.758 383.959 486.784 379.065C503.459 376.35 520.678 372.045 532.785 361.652C548.151 348.455 551.963 326.116 541.664 309.568C524.39 281.819 476.631 274.923 464.554 245.142C457.911 228.75 464.735 210.487 474.395 195.283C495.109 162.671 529.839 134.057 531.667 96.7753C532.926 71.1685 516.231 45.5304 490.415 33.4124C463.36 20.7002 425.84 22.3055 405.882 43.3153C385.329 64.961 349.209 73.2898 318.251 72.1796Z" fill="#587EEC"/>
<path d="M122.436 378.133C122.436 378.133 94.7368 356.461 89.5042 328.894C87.3822 317.317 81.6903 306.763 73.2824 298.816C69.2602 295.077 64.9159 291.728 60.304 288.809" stroke="#9AB1F3" stroke-width="2" stroke-miterlimit="10"/>
<path d="M56.9146 271.443C59.3421 274.841 60.44 289.242 60.44 289.242C60.44 289.242 47.4616 283.952 45.0291 280.559C43.861 278.928 43.3669 276.883 43.6554 274.875C43.944 272.867 44.9915 271.059 46.5676 269.851C48.1438 268.642 50.1193 268.13 52.0598 268.429C54.0002 268.728 55.7466 269.812 56.9146 271.443Z" fill="#587EEC"/>
<path d="M80.1922 282.743C80.444 286.959 73.8113 299.666 73.8113 299.666C73.8113 299.666 65.6878 287.918 65.431 283.702C65.3333 281.691 66.0049 279.722 67.3003 278.221C68.5957 276.72 70.4105 275.807 72.3515 275.681C74.2925 275.555 76.2034 276.225 77.6701 277.547C79.1367 278.869 80.0411 280.736 80.1872 282.743H80.1922Z" fill="#587EEC"/>
<path d="M102.755 315.224C100.921 318.997 88.9906 326.503 88.9906 326.503C88.9906 326.503 87.7164 312.117 89.5496 308.344C90.452 306.569 91.9916 305.232 93.8369 304.621C95.6822 304.009 97.6858 304.171 99.4165 305.073C101.147 305.975 102.467 307.544 103.091 309.442C103.715 311.34 103.595 313.417 102.755 315.224Z" fill="#587EEC"/>
<path d="M114.484 343.764C113.29 347.803 102.759 357.284 102.759 357.284C102.759 357.284 99.1484 343.332 100.342 339.287C100.916 337.346 102.211 335.721 103.943 334.768C105.674 333.816 107.701 333.614 109.576 334.208C111.451 334.802 113.022 336.142 113.942 337.934C114.863 339.726 115.058 341.823 114.484 343.764Z" fill="#587EEC"/>
<path d="M61.8048 309.882C65.8338 310.445 78.5705 304.492 78.5705 304.492C78.5705 304.492 67.8231 295.278 63.774 294.715C61.8305 294.444 59.863 294.984 58.3041 296.215C56.7452 297.446 55.7228 299.268 55.4616 301.279C55.2005 303.291 55.7221 305.327 56.9117 306.94C58.1012 308.553 59.8614 309.612 61.8048 309.882Z" fill="#587EEC"/>
<path d="M75.9314 343.086C79.9604 342.372 90.3703 332.756 90.3703 332.756C90.3703 332.756 77.4473 327.294 73.4233 328.008C72.4599 328.171 71.5373 328.53 70.7088 329.065C69.8802 329.599 69.1622 330.298 68.5961 331.121C68.0299 331.944 67.6269 332.876 67.4103 333.861C67.1937 334.846 67.1678 335.866 67.3341 336.861C67.5003 337.857 67.8555 338.809 68.379 339.661C68.9026 340.514 69.5842 341.251 70.3844 341.83C71.1847 342.409 72.0877 342.818 73.0415 343.033C73.9953 343.249 74.9809 343.267 75.9415 343.086H75.9314Z" fill="#587EEC"/>
<path d="M93.9358 373.416C98.0202 373.416 109.855 365.759 109.855 365.759C109.855 365.759 98.0152 358.113 93.9308 358.113C91.97 358.113 90.0895 358.919 88.703 360.354C87.3165 361.789 86.5376 363.735 86.5376 365.765C86.5376 367.794 87.3165 369.74 88.703 371.175C90.0895 372.61 91.97 373.416 93.9308 373.416H93.9358Z" fill="#587EEC"/>
<path d="M391.523 190.691C391.523 190.691 408.596 159.393 434.331 150.376C445.138 146.662 454.489 139.422 460.983 129.742C464.029 125.114 466.657 120.206 468.835 115.08" stroke="#9AB1F3" stroke-width="2" stroke-miterlimit="10"/>
<path d="M484.991 109.347C482.06 112.286 468.417 115.33 468.417 115.33C468.417 115.33 471.766 101.31 474.697 98.3647C476.112 96.9939 477.99 96.2528 479.927 96.301C481.865 96.3493 483.707 97.1829 485.056 98.6226C486.406 100.062 487.155 101.993 487.143 103.998C487.131 106.004 486.358 107.925 484.991 109.347Z" fill="#587EEC"/>
<path d="M477.276 134.693C473.247 135.517 460.218 130.398 460.218 130.398C460.218 130.398 470.391 120.495 474.395 119.688C475.356 119.467 476.35 119.447 477.319 119.629C478.288 119.812 479.212 120.192 480.037 120.749C480.861 121.306 481.57 122.028 482.122 122.872C482.673 123.717 483.056 124.667 483.248 125.666C483.44 126.666 483.437 127.695 483.239 128.693C483.042 129.692 482.653 130.639 482.097 131.48C481.54 132.321 480.827 133.038 479.999 133.59C479.171 134.142 478.245 134.517 477.276 134.693Z" fill="#587EEC"/>
<path d="M449.193 162.15C445.336 160.769 436.567 149.532 436.567 149.532C436.567 149.532 450.165 146.311 454.033 147.692C454.962 148.011 455.821 148.518 456.56 149.183C457.298 149.848 457.902 150.659 458.335 151.568C458.768 152.476 459.023 153.465 459.084 154.476C459.145 155.487 459.012 156.501 458.691 157.459C458.371 158.416 457.87 159.298 457.217 160.053C456.565 160.809 455.773 161.423 454.89 161.859C454.006 162.296 453.048 162.546 452.07 162.596C451.092 162.646 450.114 162.494 449.193 162.15Z" fill="#587EEC"/>
<path d="M423.388 177.974C419.359 177.286 408.903 167.722 408.903 167.722C408.903 167.722 421.791 162.166 425.815 162.854C427.752 163.184 429.483 164.296 430.627 165.946C431.771 167.597 432.235 169.65 431.916 171.654C431.598 173.659 430.523 175.45 428.928 176.634C427.334 177.818 425.35 178.299 423.413 177.969L423.388 177.974Z" fill="#587EEC"/>
<path d="M448.841 119.438C448.836 123.665 456.244 135.928 456.244 135.928C456.244 135.928 463.642 123.68 463.642 119.458C463.668 118.437 463.496 117.421 463.136 116.47C462.776 115.518 462.236 114.651 461.547 113.92C460.858 113.188 460.035 112.606 459.125 112.209C458.216 111.812 457.239 111.607 456.252 111.607C455.265 111.607 454.287 111.812 453.378 112.209C452.468 112.606 451.645 113.188 450.956 113.92C450.267 114.651 449.727 115.518 449.367 116.47C449.007 117.421 448.835 118.437 448.861 119.458L448.841 119.438Z" fill="#587EEC"/>
<path d="M418.91 138.337C420.129 142.371 430.725 151.778 430.725 151.778C430.725 151.778 434.251 137.8 433.022 133.766C432.385 131.896 431.071 130.356 429.359 129.469C427.646 128.582 425.668 128.418 423.84 129.01C422.013 129.602 420.478 130.906 419.561 132.645C418.643 134.385 418.414 136.425 418.92 138.337H418.91Z" fill="#587EEC"/>
<path d="M392.284 160.838C392.828 165.008 401.732 176.146 401.732 176.146C401.732 176.146 407.478 162.985 406.934 158.8C406.826 157.786 406.523 156.805 406.044 155.913C405.564 155.022 404.917 154.239 404.14 153.611C403.364 152.982 402.474 152.521 401.522 152.254C400.571 151.986 399.577 151.919 398.6 152.055C397.623 152.19 396.683 152.527 395.833 153.045C394.984 153.563 394.243 154.251 393.655 155.069C393.066 155.888 392.641 156.82 392.406 157.81C392.171 158.801 392.129 159.83 392.284 160.838Z" fill="#587EEC"/>
<path opacity="0.25" d="M484.991 109.347C482.06 112.286 468.417 115.33 468.417 115.33C468.417 115.33 471.766 101.31 474.697 98.3647C476.112 96.9939 477.99 96.2528 479.927 96.301C481.865 96.3493 483.707 97.1829 485.056 98.6226C486.406 100.062 487.155 101.993 487.143 103.998C487.131 106.004 486.358 107.925 484.991 109.347Z" fill="black"/>
<path opacity="0.25" d="M477.276 134.693C473.247 135.517 460.218 130.398 460.218 130.398C460.218 130.398 470.391 120.495 474.395 119.688C475.356 119.467 476.35 119.447 477.319 119.629C478.288 119.812 479.212 120.192 480.037 120.749C480.861 121.306 481.57 122.028 482.122 122.872C482.673 123.717 483.056 124.667 483.248 125.666C483.44 126.666 483.437 127.695 483.239 128.693C483.042 129.692 482.653 130.639 482.097 131.48C481.54 132.321 480.827 133.038 479.999 133.59C479.171 134.142 478.245 134.517 477.276 134.693Z" fill="black"/>
<path opacity="0.25" d="M449.193 162.15C445.336 160.769 436.567 149.532 436.567 149.532C436.567 149.532 450.165 146.311 454.033 147.692C454.962 148.011 455.821 148.518 456.56 149.183C457.298 149.848 457.902 150.659 458.335 151.568C458.768 152.476 459.023 153.465 459.084 154.476C459.145 155.487 459.012 156.501 458.691 157.459C458.371 158.416 457.87 159.298 457.217 160.053C456.565 160.809 455.773 161.423 454.89 161.859C454.006 162.296 453.048 162.546 452.07 162.596C451.092 162.646 450.114 162.494 449.193 162.15Z" fill="black"/>
<path opacity="0.25" d="M423.388 177.974C419.359 177.286 408.903 167.722 408.903 167.722C408.903 167.722 421.791 162.166 425.815 162.854C427.752 163.184 429.483 164.296 430.627 165.946C431.771 167.597 432.235 169.65 431.916 171.654C431.598 173.659 430.523 175.45 428.928 176.634C427.334 177.818 425.35 178.299 423.413 177.969L423.388 177.974Z" fill="black"/>
<path opacity="0.25" d="M448.841 119.438C448.836 123.665 456.244 135.928 456.244 135.928C456.244 135.928 463.642 123.68 463.642 119.458C463.668 118.437 463.496 117.421 463.136 116.47C462.776 115.518 462.236 114.651 461.547 113.92C460.858 113.188 460.035 112.606 459.125 112.209C458.216 111.812 457.239 111.607 456.252 111.607C455.265 111.607 454.287 111.812 453.378 112.209C452.468 112.606 451.645 113.188 450.956 113.92C450.267 114.651 449.727 115.518 449.367 116.47C449.007 117.421 448.835 118.437 448.861 119.458L448.841 119.438Z" fill="black"/>
<path opacity="0.25" d="M418.91 138.337C420.129 142.371 430.725 151.778 430.725 151.778C430.725 151.778 434.251 137.8 433.022 133.766C432.385 131.896 431.071 130.356 429.359 129.469C427.646 128.582 425.668 128.418 423.84 129.01C422.013 129.602 420.478 130.906 419.561 132.645C418.643 134.385 418.414 136.425 418.92 138.337H418.91Z" fill="black"/>
<path opacity="0.25" d="M392.284 160.838C392.828 165.008 401.732 176.146 401.732 176.146C401.732 176.146 407.478 162.985 406.934 158.8C406.826 157.786 406.523 156.805 406.044 155.913C405.564 155.022 404.917 154.239 404.14 153.611C403.364 152.982 402.474 152.521 401.522 152.254C400.571 151.986 399.577 151.919 398.6 152.055C397.623 152.19 396.683 152.527 395.833 153.045C394.984 153.563 394.243 154.251 393.655 155.069C393.066 155.888 392.641 156.82 392.406 157.81C392.171 158.801 392.129 159.83 392.284 160.838Z" fill="black"/>
<path d="M392.505 190.071C392.505 190.071 395.86 154.296 415.833 135.272C424.258 127.343 429.972 116.802 432.12 105.229C433.098 99.7277 433.585 94.1447 433.576 88.5508" stroke="#9AB1F3" stroke-width="2" stroke-miterlimit="10"/>
<path d="M446.096 76.4809C444.585 80.4004 433.284 88.9064 433.284 88.9064C433.284 88.9064 430.856 74.6827 432.382 70.7633C433.117 68.8813 434.544 67.3783 436.349 66.5851C438.155 65.7919 440.19 65.7734 442.009 66.5337C443.828 67.294 445.28 68.7708 446.046 70.6391C446.813 72.5075 446.83 74.6145 446.096 76.4965V76.4809Z" fill="#587EEC"/>
<path d="M448.972 102.917C445.633 105.346 431.697 106.143 431.697 106.143C431.697 106.143 437.126 92.8314 440.465 90.4026C441.257 89.7892 442.16 89.3466 443.12 89.1008C444.08 88.855 445.078 88.8111 446.055 88.9717C447.032 89.1323 447.968 89.4941 448.807 90.0357C449.646 90.5773 450.372 91.2877 450.941 92.1248C451.511 92.9619 451.912 93.9087 452.121 94.9091C452.33 95.9096 452.344 96.9433 452.16 97.9491C451.976 98.9549 451.599 99.9124 451.052 100.765C450.504 101.617 449.797 102.347 448.972 102.911V102.917Z" fill="#587EEC"/>
<path d="M434.034 139.807C429.965 140.162 417.546 133.553 417.546 133.553C417.546 133.553 428.726 124.901 432.795 124.546C434.75 124.376 436.689 125.017 438.187 126.327C439.685 127.636 440.619 129.508 440.783 131.531C440.947 133.553 440.328 135.56 439.063 137.11C437.797 138.66 435.988 139.627 434.034 139.797V139.807Z" fill="#587EEC"/>
<path d="M416.654 165.079C412.701 166.122 399.385 161.811 399.385 161.811C399.385 161.811 408.989 151.33 412.942 150.266C414.84 149.757 416.856 150.049 418.546 151.078C420.236 152.106 421.463 153.788 421.955 155.752C422.447 157.716 422.165 159.803 421.171 161.552C420.177 163.301 418.552 164.57 416.654 165.079Z" fill="#587EEC"/>
<path d="M417.007 100.893C418.659 104.755 430.212 112.881 430.212 112.881C430.212 112.881 432.176 98.5788 430.524 94.7167C429.701 92.9098 428.228 91.5077 426.419 90.81C424.61 90.1123 422.61 90.1743 420.844 90.9829C419.079 91.7914 417.69 93.2823 416.973 95.137C416.256 96.9918 416.268 99.0632 417.007 100.909V100.893Z" fill="#587EEC"/>
<path d="M397.043 130.717C399.737 133.891 413.104 138.051 413.104 138.051C413.104 138.051 410.847 123.796 408.153 120.621C407.517 119.85 406.739 119.218 405.865 118.76C404.991 118.303 404.037 118.03 403.06 117.957C402.083 117.884 401.102 118.013 400.173 118.336C399.245 118.66 398.388 119.17 397.652 119.839C396.915 120.508 396.315 121.322 395.886 122.233C395.456 123.144 395.205 124.134 395.149 125.147C395.092 126.159 395.23 127.172 395.556 128.129C395.881 129.085 396.386 129.965 397.043 130.717Z" fill="#587EEC"/>
<path d="M381.486 162.469C383.621 166.066 396.116 172.503 396.116 172.503C396.116 172.503 396.222 158.06 394.102 154.459C393.046 152.796 391.407 151.624 389.53 151.191C387.654 150.758 385.688 151.099 384.05 152.141C382.413 153.183 381.232 154.844 380.758 156.773C380.284 158.701 380.554 160.744 381.511 162.469H381.486Z" fill="#587EEC"/>
<path d="M366.82 49.9665C367.656 46.7923 368.664 43.6026 369.369 40.3867C368.523 43.6026 367.51 46.8028 366.82 49.9665Z" fill="url(#paint0_linear_4_6)"/>
<path d="M363.074 80.5405C363.003 80.4154 362.953 80.2903 362.897 80.1756C362.897 80.1235 362.847 80.0818 362.827 80.0297C362.717 80.0833 362.604 80.1303 362.489 80.1704C362.268 80.259 362.041 80.3424 361.809 80.4102C361.578 80.4779 361.482 80.5144 361.306 80.5561C361.16 80.6082 361.01 80.6483 360.858 80.676L360.898 80.7698C361.084 80.7281 361.266 80.6916 361.452 80.6395L361.502 81.2858C361.714 81.2858 361.91 81.2545 362.102 81.2545C362.192 81.2494 362.283 81.2494 362.373 81.2545C362.766 81.2545 363.109 81.2545 363.381 81.2545C363.275 81.02 363.164 80.775 363.074 80.5405ZM465.309 248.957C462.942 245.658 458.218 210.248 458.218 210.248C458.218 210.248 448.927 185.068 451.46 175.019C453.993 164.97 444.54 139.259 444.54 139.259C444.54 139.259 438.295 136.45 437.958 132.28C437.958 132.28 412.459 123.941 411.265 117.687C410.298 112.558 394.485 108.878 388.804 107.716C387.071 100.482 385.329 93.7322 384.044 90.0472C383.697 88.9006 383.37 87.9103 383.067 87.1285C380.897 81.3952 374.189 80.874 369.323 81.3327C369.113 80.3555 368.721 79.4299 368.17 78.6068C368.09 78.3238 367.93 78.0718 367.712 77.8823C367.607 77.7902 367.496 77.7066 367.38 77.6321C367.291 77.4632 367.176 77.3115 367.037 77.1839C366.899 77.0551 366.747 76.9431 366.584 76.8503C366.467 76.7848 366.346 76.7273 366.221 76.6783C365.929 76.5633 365.627 76.4778 365.32 76.4229C364.961 76.3466 364.597 76.2978 364.232 76.277C365.121 75.8746 365.913 75.275 366.554 74.5205C366.989 73.9909 367.313 73.3732 367.505 72.7067C367.665 72.1525 367.736 71.5751 367.717 70.9972C367.586 71.2354 367.435 71.4605 367.264 71.6696C367.475 69.3606 366.297 67.0152 365.622 64.7167C364.804 61.7243 364.653 58.5791 365.179 55.5174C365.854 50.8995 367.526 46.2295 368.659 41.5283C368.662 41.5023 368.662 41.4761 368.659 41.4501C369.253 39.1153 369.621 36.7251 369.757 34.3148C369.953 29.4519 368.749 24.5995 366.815 20.1693C365.098 16.2446 362.565 12.3825 358.687 10.7876C355.806 9.58361 352.578 9.77646 349.476 9.5784C342.516 9.13016 335.878 6.59711 329.26 4.29338C322.642 1.98966 315.833 -0.10559 308.868 0.295738C301.903 0.697066 294.737 4.1735 291.559 10.5531C290.551 12.5441 289.972 14.7592 288.769 16.6303C286.512 20.1589 282.473 21.9257 279.104 24.3598C275.735 26.7938 272.768 30.2494 271.55 34.3721C270.884 36.5933 270.79 38.9558 271.278 41.226C271.387 41.7386 271.529 42.2435 271.701 42.7375C272.179 44.1146 272.924 45.3758 273.892 46.4432C274.621 47.2321 275.459 47.9049 276.379 48.4394C277.535 49.1022 278.771 49.6002 280.056 49.9197C280.011 50.076 279.965 50.2428 279.915 50.4044C279.834 50.6702 279.764 50.9256 279.688 51.2123C279.522 51.8533 279.366 52.5048 279.235 53.1616C279.23 53.2083 279.23 53.2555 279.235 53.3023C278.616 56.2669 278.306 59.2914 278.308 62.3243C278.307 63.7587 278.378 65.1922 278.52 66.6191C280.534 87.7696 297.406 104.453 318.251 105.537C318.966 105.574 319.686 105.595 320.416 105.595C320.749 105.595 321.076 105.595 321.424 105.595C321.751 106.043 322.073 106.502 322.381 106.95C322.688 107.398 322.97 107.857 323.237 108.305L322.507 107.523L321.776 106.83C321.578 107.111 321.358 107.375 321.116 107.617C320.64 107.444 320.154 107.301 319.661 107.19C317.571 106.71 314.388 106.533 310.198 107.841C306.345 109.035 301.636 111.49 296.127 116.154L269.278 132.833L254.754 141.975L249.521 155.214C249.521 155.214 245.588 170.943 241.211 188.967C241.04 189.019 240.874 189.071 240.708 189.134C240.353 189.092 239.997 189.071 239.64 189.071C237.101 189.065 234.658 190.077 232.825 191.896C230.992 193.714 229.911 196.197 229.809 198.823C221.107 209.768 220.613 220.713 222.658 225.738C222.843 226.208 223.076 226.658 223.353 227.077C224.692 229.079 227.195 234.239 229.734 239.737C229.668 240.191 229.628 240.571 229.608 240.858C229.603 240.952 229.603 241.046 229.608 241.139C229.608 241.139 231.119 264.755 226.082 271.526C224.979 273.001 225.146 274.94 226.082 277.087C229.457 284.811 242.798 295.126 242.798 295.126C242.798 295.126 258.798 295.037 267.712 294.031C267.687 294.959 267.667 295.882 267.647 296.783C267.445 305.894 267.445 313.53 267.445 313.53L267.113 323.083C267.113 323.083 264.091 343.217 262.58 348.768C261.628 352.25 262.726 384.486 263.683 408.186H421.328C423.181 394.165 420.567 351.567 420.567 351.567C420.567 351.567 418.085 340.554 417.994 330.953C417.989 330.943 417.986 330.931 417.986 330.92C417.986 330.908 417.989 330.896 417.994 330.886C417.994 330.047 417.994 329.228 418.024 328.426L419.167 328.384L421.222 328.311H421.408C421.408 328.311 421.459 328.113 421.575 327.79C421.847 326.985 422.217 326.219 422.678 325.512C423.554 324.173 424.924 322.859 426.984 322.77C428.122 322.724 429.884 321.77 431.874 320.363C431.887 320.366 431.901 320.366 431.914 320.363C437.268 316.615 444.344 309.699 446.061 308.562C448.423 306.999 459.734 296.575 459.734 296.575C459.734 296.575 461.421 294.365 463.219 291.701L463.285 291.608C465.521 288.272 467.898 284.285 467.314 283.029C466.307 280.777 467.989 275.393 467.989 275.393C473.242 265.443 467.677 252.257 465.309 248.957ZM367.923 88.6452C367.972 88.8008 368.002 88.9617 368.014 89.1247C367.888 88.9527 367.762 88.7703 367.636 88.6035L367.516 88.4367L367.43 88.3116L367.621 88.0406C367.621 88.0406 367.621 88.0406 367.621 88.0771C367.754 88.2461 367.857 88.4385 367.923 88.6452ZM366.231 84.0273C365.682 84.142 365.249 84.2462 364.967 84.3244C364.61 83.6677 364.267 83.011 363.96 82.3438C364.767 82.8286 365.528 83.3923 366.231 84.0273ZM365.284 84.8508C365.283 84.8405 365.283 84.8299 365.284 84.8196L365.325 84.8508C365.531 84.9916 365.733 85.1271 365.919 85.2678C366.085 85.3929 366.236 85.5128 366.387 85.6378C366.287 85.8203 366.176 86.0079 366.065 86.159C365.889 85.8724 365.723 85.5962 365.561 85.3095C365.461 85.1948 365.37 85.0385 365.284 84.8508ZM362.263 78.4192C363.236 78.3198 364.216 78.3198 365.189 78.4192C365.325 78.4192 365.446 78.4452 365.566 78.4661C365.84 78.5098 366.108 78.5814 366.367 78.6798C366.962 79.5415 367.329 80.5497 367.43 81.6037L367.158 81.6454L366.891 81.6975C366.387 81.7861 365.884 81.8747 365.491 81.9581L364.987 82.0676C364.317 82.2188 363.93 82.3334 363.915 82.3386C363.849 82.1979 363.784 82.0676 363.713 81.9321C363.602 81.708 363.486 81.4786 363.386 81.2545C363.285 81.0304 363.154 80.775 363.048 80.5405C362.978 80.4154 362.927 80.2903 362.872 80.1756C362.872 80.1235 362.822 80.0818 362.802 80.0297C362.772 79.9744 362.747 79.9169 362.726 79.8577C362.419 79.2114 362.137 78.5651 361.865 77.9292C361.835 77.8667 361.809 77.7989 361.784 77.7364L362.167 77.7103V77.8458L362.263 78.4192ZM242.103 401.743C242.062 393.983 241.518 385.586 240.008 377.706C239.363 374.354 238.698 371.003 238.023 367.709C237.852 366.885 237.686 366.072 237.52 365.259L235.969 365.473H235.828C231.597 344.828 227.175 326.638 227.175 326.638C227.175 326.638 218.392 291.931 219.409 289.163C219.54 288.804 219.374 287.834 219.001 286.411C216.876 278.52 208.002 256.776 204.9 249.343C204.9 249.312 204.875 249.275 204.865 249.249C204.361 248.004 203.998 247.165 203.888 246.92L204.618 235.828L204.658 235.161L204.754 233.743L204.714 233.707L204.754 233.05C204.754 233.05 197.089 226.546 184.105 221.85C183.602 221.662 183.068 221.48 182.539 221.302C183.189 216.815 184.05 211.749 185.173 206.813C185.279 206.318 185.394 205.838 185.515 205.353C185.621 204.869 185.742 204.4 185.863 203.925C186.054 203.154 186.261 202.393 186.472 201.642C187.172 201.413 187.862 201.158 188.542 200.887L188.804 200.782C197.18 197.41 204.091 191.01 208.258 182.769C212.424 174.528 213.565 165.003 211.467 155.959C210.271 150.829 208.063 146.012 204.98 141.808C204.749 141.485 204.502 141.162 204.255 140.844C204.008 140.526 203.711 140.172 203.434 139.848C204.89 136.424 206.607 133.167 206.748 129.836C206.773 129.414 206.773 128.991 206.748 128.57V128.517C206.562 126.375 205.645 124.207 203.51 121.929C200.392 118.588 195.955 116.895 191.519 116.081C187.082 115.268 182.559 115.247 178.097 114.7C170.699 113.783 163.492 111.422 156.094 110.697C146.981 109.824 137.806 111.442 129.487 115.388C123.982 117.994 118.407 122.55 118.075 128.799C117.803 133.964 121.278 138.915 120.402 144.018C119.53 149.032 114.595 152.978 115.028 158.049C115.194 160.029 116.176 161.802 117.405 163.381C117.828 163.902 118.276 164.423 118.74 164.944C120.533 166.909 122.507 168.796 123.509 171.272C123.549 171.376 123.59 171.48 123.625 171.585C124.476 174.029 124.093 177.12 121.988 178.522C122 178.531 122.008 178.544 122.013 178.558C122.043 178.6 122.074 178.631 122.099 178.673C122.102 178.665 122.102 178.655 122.099 178.647C122.845 179.563 123.851 180.212 124.975 180.502L125.403 180.638C125.055 181.029 124.728 181.435 124.395 181.863L124.179 182.16C123.624 182.932 123.119 183.742 122.668 184.583C122.411 185.052 122.164 185.522 121.958 185.991C121.267 187.421 120.768 188.941 120.472 190.51C119.933 193.96 120.694 197.556 119.878 200.934C118.871 205.103 115.683 208.303 113.885 212.176C110.48 219.473 112.409 228.036 113.094 236.094C114.026 247.039 112.515 258.032 111.009 268.904C110.21 274.686 109.411 280.473 108.612 286.265C106.597 300.803 104.583 315.342 102.568 329.88C101.833 335.206 100.962 340.825 97.532 344.937H97.5672C97.5672 344.937 97.5672 344.969 97.532 344.979C98.5615 345.445 99.6565 345.737 100.775 345.844C105.253 346.308 109.997 344.067 114.026 341.617C117.216 339.709 120.238 337.513 123.056 335.055C122.643 336.619 122.2 338.323 121.726 340.158C121.728 340.175 121.728 340.193 121.726 340.21C116.04 362.622 106.894 403.708 106.894 403.708C106.894 403.708 106.063 405.496 104.986 408.16H247.008C245.346 406.075 243.8 404.078 242.591 402.468L242.103 401.743ZM136.946 194.512C136.981 194.45 137.006 194.392 137.041 194.335C137.041 194.502 137.041 194.664 137.041 194.82C137.041 194.976 137.041 195.117 137.041 195.263C137.041 195.409 137.041 195.393 137.041 195.466C137.041 195.539 137.041 195.466 137.041 195.466C137.041 195.68 136.996 195.894 136.961 196.107C136.961 196.107 136.961 196.133 136.961 196.154L137.464 196.347L138.049 196.597C141.5 198.008 144.995 199.285 148.534 200.428C148.897 200.548 149.264 200.663 149.632 200.772L149.708 201.418C149.798 202.08 149.884 202.753 149.964 203.425C149.964 203.425 149.964 203.456 149.964 203.477C150.191 205.338 150.413 207.193 150.609 209.007C150.609 209.007 141.362 205.359 141.478 210.899C141.473 210.998 141.473 211.097 141.478 211.196C141.468 211.328 141.468 211.46 141.478 211.592C141.564 215.908 142.868 218.467 143.13 219.78C143.115 219.835 143.087 219.885 143.05 219.926C142.826 220.43 142.749 220.989 142.828 221.537C142.819 222.469 142.89 223.401 143.04 224.32C142.768 224.492 142.501 224.664 142.234 224.841C142.032 224.972 141.841 225.118 141.645 225.263C140.409 220.828 138.793 216.516 136.815 212.379C135.43 209.429 133.874 206.354 133.889 203.117C133.889 202.909 133.889 202.695 133.914 202.482C133.97 201.544 134.143 200.617 134.428 199.724C134.543 199.386 134.669 199.052 134.81 198.724C135.139 197.943 135.508 197.181 135.913 196.441C136.175 195.951 136.452 195.466 136.719 194.976C136.805 194.83 136.885 194.679 136.966 194.533L136.946 194.512ZM363.074 80.5405C363.003 80.4154 362.953 80.2903 362.897 80.1756C362.897 80.1235 362.847 80.0818 362.827 80.0297C362.717 80.0833 362.604 80.1303 362.489 80.1704C362.268 80.259 362.041 80.3424 361.809 80.4102C361.578 80.4779 361.482 80.5144 361.306 80.5561L360.858 80.676L360.898 80.7698C361.084 80.7281 361.266 80.6916 361.452 80.6395L361.502 81.2858C361.714 81.2858 361.91 81.2545 362.102 81.2545H362.373C362.766 81.2545 363.109 81.2545 363.381 81.2545C363.275 81.02 363.164 80.775 363.074 80.5405Z" fill="url(#paint1_linear_4_6)"/>
<path d="M253.031 157.095L250.01 158.476C250.01 158.476 230.313 237.668 230.313 244.068C230.313 250.469 272.078 286.083 272.078 286.083L278.595 240.561C278.595 240.561 269.238 136.169 253.031 157.095Z" fill="#E8F5FF"/>
<path d="M344.646 131.906L327.195 122.482C326.217 118.17 324.483 114.08 322.078 110.416C319.525 106.601 316.13 102.854 311.9 100.899C301.208 95.9372 357.125 69.8926 357.125 69.8926C358.006 73.0213 359.043 76.1005 360.233 79.1179C363.113 86.4773 367.893 95.9945 374.052 98.7048C384.523 103.317 344.646 131.906 344.646 131.906Z" fill="#FFB0B1"/>
<path opacity="0.1" d="M360.233 79.1179C357.843 87.8142 352.875 95.5139 346.029 101.13C339.182 106.746 330.805 109.994 322.078 110.416C319.525 106.601 316.13 102.854 311.9 100.899C301.208 95.9372 357.125 69.8926 357.125 69.8926C358.006 73.0213 359.043 76.1005 360.233 79.1179Z" fill="black"/>
<path d="M361.804 65.9668C361.806 74.4956 359.364 82.8335 354.787 89.9259C350.21 97.0183 343.703 102.547 336.09 105.812C328.476 109.077 320.098 109.932 312.015 108.269C303.932 106.606 296.507 102.499 290.68 96.469C284.852 90.4385 280.883 82.7549 279.275 74.39C277.667 66.025 278.492 57.3545 281.646 49.4749C284.8 41.5954 290.141 34.8608 296.994 30.123C303.847 25.3851 311.903 22.8569 320.144 22.8579C325.622 22.8317 331.05 23.9288 336.116 26.0858C341.181 28.2429 345.784 31.4172 349.657 35.4254C353.531 39.4336 356.598 44.1963 358.683 49.4383C360.768 54.6804 361.829 60.298 361.804 65.9668Z" fill="#FFB0B1"/>
<path d="M367.817 126.37L356.456 153.806L346.433 172.017H314.352L304.995 147.119L308.787 121.299H333.289L349.108 120.376L354.451 118.531L357.896 120.554L367.817 126.37Z" fill="#575A89"/>
<path opacity="0.1" d="M363.904 89.7969C363.904 89.7969 370.99 91.3605 364.645 96.7445C358.299 102.129 336.406 119.25 336.406 119.25C336.406 119.25 344.097 126.339 342.505 134.641L367.984 119.943L372.516 96.4266C372.516 96.4266 373.025 89.3591 363.904 89.7969Z" fill="black"/>
<path opacity="0.1" d="M341.417 119.25L325.211 122.018C325.211 122.018 328.555 134.813 326.883 138.446C326.832 138.559 326.79 138.676 326.757 138.795L320.144 157.293L325.1 171.819L342.253 147.609L336.406 138.446C336.406 138.446 342.586 129.971 346.262 127.032C349.939 124.092 341.417 119.25 341.417 119.25Z" fill="black"/>
<path d="M341.417 118.537L325.211 121.299C325.211 121.299 328.555 134.095 326.883 137.728C326.832 137.841 326.79 137.958 326.757 138.077L320.144 156.575L325.1 171.101L342.253 146.875L336.406 137.712C336.406 137.712 342.586 129.237 346.262 126.298C349.939 123.358 341.417 118.537 341.417 118.537Z" fill="#DCE6F2"/>
<path d="M364.584 88.416C364.584 88.416 371.67 89.9796 365.32 95.3637C358.969 100.748 336.406 119.251 336.406 119.251C336.406 119.251 344.762 124.958 343.175 133.255L368.654 118.563L373.186 95.0457C373.186 95.0457 373.69 87.9782 364.584 88.416Z" fill="#575A89"/>
<path opacity="0.1" d="M323.191 112.047C323.191 112.047 324.737 115.039 331.562 120.433C331.562 120.433 320.2 126.688 324.546 135.48L307.166 130.789L304.492 122.143L323.191 112.047Z" fill="black"/>
<path d="M322.521 111.359C322.521 111.359 324.067 114.351 330.891 119.746C330.891 119.746 319.53 125.969 323.876 134.788L306.501 130.097L303.827 121.455L322.521 111.359Z" fill="#575A89"/>
<path opacity="0.1" d="M367.817 126.369L356.456 153.806L346.454 172.016H314.352L304.995 147.119L308.782 121.298H315.596C315.486 127.323 317.611 134.401 317.475 137.033C317.243 141.359 323.71 164.699 323.71 164.699C323.71 164.699 337.242 142.047 342.586 140.03C345.945 138.764 353.061 128.225 357.891 120.553L367.817 126.369Z" fill="black"/>
<path d="M412.575 270.749L411.421 272.25C411.421 272.25 419.777 315.651 417.465 325.507C417.072 327.284 416.848 329.096 416.795 330.917V330.995C416.387 341.023 419.313 354.038 419.313 354.038C419.313 354.038 421.65 392.398 420.32 408.175H263.884C262.968 384.846 261.981 354.622 262.877 351.27C264.388 345.74 267.41 325.679 267.41 325.679L267.742 316.172C267.742 316.172 267.742 306.983 268.014 296.747C268.13 292.145 268.301 287.313 268.548 283.029C268.865 277.64 269.308 273.1 269.918 270.869C270.293 269.178 270.509 267.454 270.562 265.72C270.562 265.558 270.562 265.391 270.593 265.224C270.593 264.703 270.643 264.14 270.663 263.562C270.663 263.4 270.663 263.239 270.663 263.041C270.759 259.684 270.724 255.702 270.618 251.574C270.618 251.35 270.618 251.121 270.618 250.891C270.532 247.795 270.406 244.637 270.265 241.635C269.827 232.253 269.258 224.32 269.258 224.32L250.045 158.44L255.222 145.243L269.59 136.132L296.157 119.532C309.115 108.509 317.646 109.832 320.9 111.042C321.216 111.153 321.525 111.284 321.826 111.433C321.927 111.485 322.008 111.526 322.083 111.573C322.187 111.624 322.286 111.683 322.38 111.75C321.49 112.194 320.715 112.854 320.124 113.674C319.458 114.607 318.983 115.671 318.729 116.801C318.559 117.501 318.439 118.214 318.372 118.933C318.306 119.688 318.281 120.47 318.281 121.257C318.317 122.983 318.46 124.705 318.709 126.412C318.709 126.443 318.709 126.485 318.709 126.527C318.875 127.746 319.082 128.94 319.283 130.06C319.281 130.079 319.281 130.099 319.283 130.118C319.515 131.426 319.746 132.635 319.903 133.678C319.933 133.865 319.958 134.037 319.983 134.199C320.094 134.888 320.146 135.585 320.139 136.284C320.196 137.97 320.415 139.646 320.794 141.287C320.925 141.975 321.076 142.71 321.242 143.476C321.469 144.519 321.716 145.655 321.983 146.812C322.129 147.448 322.285 148.104 322.446 148.756C322.506 149.017 322.572 149.277 322.632 149.543L322.733 149.955C323.806 154.369 324.969 158.763 325.684 161.421C326.107 162.985 326.374 163.949 326.374 163.949C326.374 163.949 333.959 151.258 340.012 144.034C340.103 143.93 340.184 143.831 340.269 143.737C340.868 143.023 341.458 142.371 342.022 141.798C343.256 140.526 344.364 139.619 345.255 139.286C345.445 139.214 345.629 139.125 345.804 139.02C348.282 137.566 352.281 132.286 356.023 126.756C356.39 126.235 356.748 125.667 357.11 125.13C357.941 123.889 358.747 122.644 359.508 121.45C360.092 120.538 360.651 119.652 361.18 118.808C363.698 114.753 365.471 111.73 365.471 111.73L368.966 111.568L369.575 111.537H369.983L385.852 110.776C385.852 110.776 386.537 110.896 387.665 111.13C387.726 111.13 387.786 111.13 387.852 111.172C393.482 112.329 409.125 115.993 410.082 121.075C411.25 127.298 436.482 135.601 436.482 135.601C436.814 139.77 442.994 142.517 442.994 142.517C442.994 142.517 452.351 168.108 449.848 178.136C447.375 188.039 456.284 212.536 456.521 213.224L454.814 215.455L412.575 270.749Z" fill="#E8F5FF"/>
<path opacity="0.1" d="M363.899 87.9781C363.899 87.9781 379.345 83.4436 382.856 92.7784C386.366 102.113 394.218 139.812 394.218 139.812C394.218 139.812 373.831 143.789 368.487 139.812C365.353 137.452 361.474 136.402 357.624 136.872L346.096 144.998L342.692 143.955C342.692 143.955 361.134 115.581 365.143 105.939C369.152 96.2965 370.507 91.9861 363.899 87.9781Z" fill="black"/>
<path d="M363.23 85.8941C363.23 85.8941 378.686 81.3596 382.211 90.6944C385.737 100.029 393.573 137.728 393.573 137.728C393.573 137.728 373.191 141.705 367.843 137.728C364.71 135.368 360.833 134.318 356.985 134.788L345.447 142.914L342.042 141.871C342.042 141.871 360.485 113.497 364.494 103.855C368.503 94.2125 369.837 89.9126 363.23 85.8941Z" fill="#E8F5FF"/>
<path opacity="0.1" d="M259.548 236.287C259.548 236.287 271.076 239.227 273.252 245.971C275.428 252.716 264.731 252.888 264.731 252.888C264.731 252.888 258.214 240.957 259.548 236.287Z" fill="black"/>
<path opacity="0.1" d="M302.487 286.082C302.487 286.082 274.254 345.911 280.771 351.618C287.288 357.326 302.487 286.082 302.487 286.082Z" fill="black"/>
<path opacity="0.1" d="M341.417 241.994C341.417 241.994 363.975 300.109 359.462 309.084C354.95 318.059 369.152 309.084 369.152 309.084L341.417 241.994Z" fill="black"/>
<path d="M372.829 299.4C372.829 299.4 296.64 303.205 318.865 327.759C341.09 352.313 386.698 328.802 386.698 328.802L372.829 299.4Z" fill="#FFB0B1"/>
<path opacity="0.1" d="M361.804 65.9677C361.811 71.6229 360.738 77.2237 358.647 82.4482C357.947 82.5316 357.247 82.5838 356.572 82.615C355.565 80.327 356.103 77.6844 356.124 75.167C356.144 72.6496 355.247 69.6891 352.905 69.0116C348.237 67.6512 345.014 76.6837 340.41 75.0523C336.885 73.8119 337.807 68.2767 335.777 65.0817C334.171 62.5539 330.952 61.8398 328.449 60.2553C323.126 56.8727 323.287 51.4626 320.814 46.3444C318.226 40.9812 312.756 42.5656 308.007 45.7294C304.401 48.1373 301.289 51.3636 297.431 53.2816C294.092 54.9495 290.34 55.5541 286.638 55.6427C284.359 55.7341 282.08 55.4848 279.87 54.9026C282.469 44.788 288.535 35.9973 296.935 30.1697C305.336 24.3421 315.498 21.8755 325.526 23.2298C335.554 24.5842 344.764 29.6671 351.438 37.5307C358.112 45.3942 361.795 55.5015 361.799 65.9677H361.804Z" fill="black"/>
<path d="M308.022 44.349C304.411 46.7569 301.304 49.978 297.446 51.9064C294.107 53.5691 290.355 54.1737 286.653 54.2623C282.121 54.3665 277.241 53.543 274.143 50.1552C271.298 47.028 270.618 42.2172 271.822 38.1154C273.025 34.0135 275.911 30.61 279.3 28.1447C282.69 25.6794 286.623 23.9751 288.869 20.4465C290.058 18.5806 290.632 16.3811 291.619 14.3953C294.777 8.04184 301.878 4.60188 308.742 4.17449C315.607 3.74711 322.411 5.8632 328.948 8.1565C335.485 10.4498 342.072 12.9724 348.972 13.4467C352.044 13.6448 355.237 13.4467 358.088 14.6507C361.92 16.2612 364.433 20.1129 366.146 24.0324C368.064 28.4522 369.258 33.2786 369.057 38.1049C368.634 48.4092 362.056 58.5205 364.947 68.3922C365.713 71.0242 367.148 73.7241 366.382 76.3562C365.264 80.1974 360.475 81.0731 356.602 81.2555C355.595 78.9674 356.134 76.3197 356.154 73.8075C356.174 71.2953 355.277 68.3296 352.941 67.652C348.267 66.3021 345.044 75.319 340.451 73.6928C336.95 72.4471 337.857 66.9171 335.822 63.7222C334.216 61.1891 330.993 60.4803 328.495 58.8958C323.171 55.5132 323.332 50.1031 320.86 44.9848C318.251 39.5956 312.776 41.18 308.022 44.349Z" fill="#575A89"/>
<path d="M234.145 242.683L230.303 244.069C230.303 244.069 231.813 267.586 226.777 274.33C221.741 281.074 243.316 297.842 243.316 297.842C243.316 297.842 272.889 297.67 273.725 295.236C274.561 292.802 272.214 251.663 272.214 251.663C272.214 251.663 256.34 245.262 257.675 235.062C257.675 235.062 252.83 259.095 245.648 258.058C238.466 257.021 230.313 250.813 234.145 242.683Z" fill="#E8F5FF"/>
<path opacity="0.1" d="M246.963 265.333C252.562 265.333 257.101 261.037 257.101 255.738C257.101 250.439 252.562 246.143 246.963 246.143C241.364 246.143 236.825 250.439 236.825 255.738C236.825 261.037 241.364 265.333 246.963 265.333Z" fill="black"/>
<path d="M258.048 243.376C258.048 243.376 256.033 179.747 238.497 193.924C220.961 208.1 220.789 225.055 224.128 230.064C227.467 235.073 238.174 260.148 238.174 260.148C239.849 261.153 241.73 261.732 243.663 261.839C245.596 261.946 247.526 261.578 249.295 260.764C251.064 259.951 252.622 258.715 253.84 257.158C255.058 255.602 255.903 253.768 256.305 251.809L258.048 243.376Z" fill="#FFB0B1"/>
<path opacity="0.1" d="M367.44 82.2026C367.358 81.923 367.201 81.6734 366.986 81.4833C366.12 80.665 364.257 80.3783 361.447 80.6285L361.562 82.0045C365.309 81.6709 366.05 82.4423 366.145 82.5726V82.7029L366.261 82.8749C366.728 83.5247 367.059 84.2683 367.233 85.0582C367.406 85.848 367.418 86.6666 367.268 87.4615C366.448 91.7093 361.406 95.092 361.356 95.1285L361.235 95.2014L361.159 95.3213C358.984 98.6622 346.68 108.091 343.462 110.53L343.18 110.196C341.74 111.489 329.079 122.961 328.394 127.355C327.95 130.112 324.949 131.18 323.861 131.477C322.713 130.576 318.986 127.506 317.047 124.066C315.229 120.829 322.547 114.512 323.191 112.047L322.184 110.978C322.078 111.374 312.681 120.464 315.294 125.108C317.389 128.835 321.217 132.025 322.557 133.077C322.129 137.101 319.464 160.727 315.37 166.325C310.283 173.283 306.007 208.35 306.481 220.593C306.899 231.471 304.154 252.016 294.988 260.84C293.401 262.435 291.487 263.638 289.388 264.36C287.289 265.082 285.059 265.304 282.866 265.01H282.755H282.644C282.513 265.01 269.218 266.417 258.047 256.671C248.906 248.712 243.729 235.724 242.651 218.055H242.43L242.339 212.91C244.818 212.51 247.05 211.131 248.566 209.063C250.083 206.996 250.766 204.4 250.472 201.822C250.178 199.244 248.931 196.884 246.991 195.238C245.051 193.592 242.57 192.789 240.07 192.996C237.569 193.203 235.244 194.406 233.582 196.35C231.92 198.295 231.052 200.83 231.158 203.424C231.265 206.018 232.339 208.467 234.154 210.259C235.97 212.05 238.385 213.044 240.894 213.03H241.005L241.095 218.143L240.652 218.175C241.76 236.417 247.199 249.911 256.768 258.245C264.041 264.482 273.331 267.628 282.76 267.048C283.429 267.124 284.102 267.162 284.775 267.163C289.097 267.186 293.255 265.455 296.358 262.341C306.013 253.038 308.949 231.736 308.49 220.489C307.987 207.516 312.474 173.711 316.976 167.555C321.388 161.514 324.062 137.977 324.531 133.416C326.127 132.952 329.738 131.488 330.353 127.683C330.796 124.931 339.252 116.451 344.454 111.755L344.298 111.567C347.098 109.451 355.806 102.78 360.122 98.4954C361.462 97.1664 362.791 95.8373 364.181 94.5708C365.853 93.0384 367.979 90.6044 368.538 87.7273C368.728 86.7776 368.729 85.7976 368.54 84.8475C368.351 83.8975 367.977 82.9974 367.44 82.2026Z" fill="black"/>
<path d="M322.386 132.749C322.174 132.598 317.158 128.882 314.645 124.41C312.036 119.766 321.434 110.681 321.535 110.285L322.542 111.354C321.902 113.814 314.584 120.136 316.403 123.367C318.694 127.448 323.519 131.019 323.569 131.055L322.386 132.749Z" fill="#353146"/>
<path d="M342.808 111.541L342.022 110.42C342.183 110.301 358.002 98.4588 360.495 94.6279L360.576 94.5133L360.691 94.4351C360.742 94.3986 365.783 91.0212 366.604 86.7682C366.755 85.9741 366.744 85.156 366.57 84.3668C366.397 83.5776 366.065 82.8349 365.597 82.1868L365.481 82.0096V81.8845C365.38 81.749 364.64 80.9828 360.893 81.3164L360.777 79.9352C363.592 79.685 365.451 79.9716 366.317 80.7899C366.533 80.982 366.691 81.2331 366.775 81.5144C367.32 82.3069 367.702 83.2064 367.897 84.1575C368.093 85.1085 368.099 86.0911 367.913 87.0444C367.354 89.9267 365.234 92.3607 363.557 93.8878C362.172 95.1543 360.837 96.4938 359.503 97.8125C354.441 102.832 343.362 111.129 342.808 111.541Z" fill="#E8F5FF"/>
<path d="M241.689 211.096L240.355 211.121L240.504 219.516L241.838 219.491L241.689 211.096Z" fill="#E8F5FF"/>
<path d="M240.244 212.368C245.626 212.368 249.989 207.853 249.989 202.283C249.989 196.713 245.626 192.197 240.244 192.197C234.862 192.197 230.499 196.713 230.499 202.283C230.499 207.853 234.862 212.368 240.244 212.368Z" fill="#587EEC"/>
<path d="M240.244 210.66C244.714 210.66 248.337 206.91 248.337 202.284C248.337 197.658 244.714 193.908 240.244 193.908C235.774 193.908 232.151 197.658 232.151 202.284C232.151 206.91 235.774 210.66 240.244 210.66Z" fill="#E8F5FF"/>
<path d="M284.14 266.491C283.467 266.492 282.795 266.456 282.126 266.382C272.698 266.957 263.409 263.811 256.134 257.579C246.565 249.24 241.136 235.761 240.018 217.503L242.032 217.373C243.11 235.042 248.287 248.036 257.433 255.989C268.603 265.71 281.894 264.328 282.025 264.328H282.136H282.247C284.441 264.621 286.671 264.398 288.77 263.677C290.87 262.955 292.785 261.752 294.374 260.159C303.535 251.335 306.28 230.789 305.862 219.911C305.358 207.658 309.634 172.591 314.725 165.638C319.182 159.545 321.947 132.083 321.978 131.807L322.053 131.025L322.798 130.89C322.844 130.89 327.195 130.035 327.739 126.668C328.444 122.279 341.085 110.808 342.52 109.51L343.835 111.073C338.612 115.764 330.156 124.249 329.733 127.007C329.119 130.822 325.508 132.281 323.917 132.74C323.413 137.306 320.759 160.838 316.362 166.879C311.86 173.034 307.372 206.84 307.876 219.812C308.309 231.06 305.403 252.367 295.749 261.665C292.64 264.786 288.471 266.519 284.14 266.491Z" fill="#353146"/>
<g opacity="0.1">
<path opacity="0.1" d="M366.095 53.6455C366.921 50.487 367.918 47.3076 368.613 44.1074C367.782 47.3233 366.78 50.487 366.095 53.6455Z" fill="black"/>
<path opacity="0.1" d="M357.669 78.4655C356.662 76.1774 357.201 73.5297 357.221 71.0175C357.241 68.5053 356.345 65.5657 354.008 64.862C349.334 63.5121 346.111 72.5342 341.518 70.9028C337.993 69.6571 338.925 64.1271 336.89 60.9322C335.283 58.3991 332.065 57.6903 329.567 56.1058C324.239 52.7232 324.4 47.3131 321.932 42.1948C319.339 36.8264 313.874 38.4109 309.12 41.5798C305.509 43.9878 302.402 47.214 298.544 49.1373C295.205 50.7999 291.453 51.4045 287.751 51.4931C283.244 51.6026 278.338 50.7739 275.241 47.386C272.854 44.78 271.993 40.9596 272.486 37.3789C272.401 37.6239 272.325 37.8688 272.25 38.1138C271.041 42.2157 271.746 47.0368 274.571 50.1536C277.669 53.5415 282.574 54.365 287.081 54.2607C290.788 54.1721 294.535 53.5675 297.879 51.9049C301.747 49.9764 304.854 46.7554 308.455 44.3474C313.209 41.1785 318.679 39.594 321.267 44.9624C323.735 50.0807 323.579 55.4908 328.902 58.8734C331.421 60.437 334.619 61.1667 336.23 63.6998C338.245 66.9052 337.353 72.4247 340.858 73.6704C345.446 75.2966 348.67 66.2797 353.343 67.6296C355.68 68.3072 356.582 71.2781 356.556 73.7851C356.531 76.2921 356.008 78.945 357.005 81.2331C360.878 81.0507 365.667 80.1907 366.79 76.3338C366.945 75.7802 367.016 75.2054 367.002 74.6294C365.365 77.5534 361.155 78.3039 357.669 78.4655Z" fill="black"/>
</g>
<path opacity="0.1" d="M448.69 206.891L454.537 213.292C454.537 213.292 459.216 248.562 461.553 251.861C463.889 255.16 469.409 268.284 464.227 278.14C464.227 278.14 462.555 283.503 463.557 285.75C464.559 287.996 456.043 299.239 456.043 299.239C456.043 299.239 444.847 309.611 442.505 311.169C440.164 312.727 427.805 325.174 423.63 325.346C419.454 325.518 418.09 330.881 418.09 330.881L394.53 331.746C394.53 331.746 381.516 331.043 378.686 332.945C378.686 332.945 380.197 312.368 365.657 298.879L384.201 291.963C384.201 291.963 391.221 288.835 393.392 285.567C394.757 283.564 396.695 282.053 398.932 281.247C398.932 281.247 404.109 277.442 404.275 275.367C404.441 273.293 410.606 270.75 410.606 270.75L407.116 239.92L408.954 188.738C408.954 188.738 414.801 145.853 427.165 148.277C439.529 150.7 448.69 206.891 448.69 206.891Z" fill="black"/>
<path d="M450.704 206.891L456.551 213.292C456.551 213.292 461.23 248.562 463.567 251.861C465.903 255.16 471.423 268.284 466.241 278.14C466.241 278.14 464.574 283.503 465.576 285.75C466.578 287.996 458.057 299.239 458.057 299.239C458.057 299.239 446.861 309.611 444.52 311.169C442.178 312.727 429.819 325.174 425.644 325.346C421.469 325.518 420.104 330.881 420.104 330.881L396.544 331.746C396.544 331.746 383.52 331.043 380.7 332.945C380.7 332.945 382.211 312.368 367.671 298.879L386.215 291.963C386.215 291.963 393.235 288.835 395.406 285.567C396.772 283.564 398.709 282.053 400.946 281.247C400.946 281.247 406.123 277.442 406.289 275.367C406.456 273.293 412.62 270.75 412.62 270.75L409.13 239.92L410.968 188.738C410.968 188.738 416.815 145.853 429.179 148.277C441.543 150.7 450.704 206.891 450.704 206.891Z" fill="#E8F5FF"/>
<path opacity="0.1" d="M428.968 258.594C428.968 258.594 446.177 253.903 450.689 259.637C455.202 265.37 428.968 258.594 428.968 258.594Z" fill="black"/>
<path opacity="0.1" d="M424.959 266.459C430.806 270.696 448.851 270.868 448.851 270.868L424.959 266.459Z" fill="black"/>
<path opacity="0.1" d="M433.812 287.641C434.316 287.813 446.217 300.957 451.213 296.981C456.209 293.004 433.812 287.641 433.812 287.641Z" fill="black"/>
<path opacity="0.1" d="M273.539 177.322C273.539 177.322 277.034 202.225 275.312 212.368C273.589 222.511 279.875 235.077 279.875 235.077L273.539 177.322Z" fill="black"/>
<path d="M196.162 187.449C192.133 190.717 189.192 198.452 187.061 206.953C183.345 221.781 182.131 238.975 182.131 238.975C182.131 238.975 150.05 231.366 152.387 227.91C153.857 225.737 151.883 209.361 150.236 197.488C149.254 190.472 148.378 185.026 148.378 185.026C148.378 185.026 207.191 178.453 196.162 187.449Z" fill="#FFB0B1"/>
<path opacity="0.1" d="M196.162 186.757C192.133 190.031 189.192 197.76 187.061 206.261C180.67 208.269 173.872 208.451 167.389 206.785C160.905 205.12 154.979 201.67 150.236 196.801C149.254 189.78 148.378 184.334 148.378 184.334C148.378 184.334 207.191 177.767 196.162 186.757Z" fill="black"/>
<path d="M213.406 168.128C213.409 177.194 210.314 185.968 204.667 192.898C199.02 199.829 191.186 204.468 182.552 205.996C173.917 207.524 165.039 205.841 157.488 201.245C149.938 196.65 144.201 189.438 141.294 180.886C138.388 172.335 138.498 162.994 141.605 154.519C144.713 146.043 150.618 138.978 158.275 134.575C165.932 130.171 174.847 128.713 183.443 130.459C192.038 132.204 199.76 137.04 205.242 144.111C210.525 150.922 213.404 159.394 213.406 168.128Z" fill="#FFB0B1"/>
<path opacity="0.1" d="M242.657 408.176H232.08L231.189 388.844L230.257 368.835C230.257 368.835 232.66 368.465 236.487 367.913L238.033 367.699H238.159C238.995 371.759 239.821 375.929 240.617 380.093C241.941 387.486 242.631 394.986 242.677 402.505C242.677 403.026 242.677 403.548 242.677 404.038C242.707 405.429 242.677 406.821 242.657 408.176Z" fill="black"/>
<path d="M240.627 408.175H107.992C108.566 406.825 108.949 406.007 108.949 406.007C108.949 406.007 119.56 357.962 124.954 337.635C124.956 337.618 124.956 337.601 124.954 337.583C125.628 334.822 126.442 332.099 127.392 329.426C127.453 329.245 127.533 329.07 127.629 328.905C130.298 324.412 133.642 319.57 128.963 312.654C124.284 305.738 125.941 275.304 125.941 275.304C125.941 275.304 131.622 249.364 137.636 235.531C138.548 233.389 139.843 231.443 141.453 229.798C141.976 229.268 142.535 228.777 143.125 228.328C143.574 227.979 144.041 227.657 144.525 227.364L144.621 227.301C147.147 225.819 149.952 224.918 152.845 224.659C154.9 224.437 156.975 224.496 159.014 224.836C168.765 226.316 176.571 228.792 182.776 231.612C199.592 239.258 204.683 249.505 204.784 249.718L204.824 249.807C205.499 251.438 215.37 275.289 218.926 286.417C219.847 289.314 220.351 291.352 220.15 291.91C219.142 294.672 227.835 329.254 227.835 329.254C227.835 329.254 231.864 345.933 235.893 365.483C236.069 366.296 236.235 367.109 236.397 367.933C237.117 371.482 237.832 375.1 238.522 378.712C239.859 386.155 240.548 393.708 240.582 401.28C240.656 403.639 240.671 405.938 240.627 408.175Z" fill="#EB5569"/>
<path opacity="0.1" d="M152.054 212.766C152.054 212.766 142.903 209.117 143.014 214.652C143.125 220.188 145.245 222.835 144.575 223.643C143.906 224.451 144.908 229.293 144.908 229.293C144.908 229.293 157.272 229.293 162.953 231.941C168.634 234.589 189.574 239.894 192.249 241.51C194.923 243.126 204.839 250.371 204.839 250.371L205.731 236.652C205.731 236.652 195.482 227.891 178.666 223.398C161.85 218.905 152.054 212.766 152.054 212.766Z" fill="black"/>
<path d="M152.054 212.072C152.054 212.072 142.903 208.424 143.014 213.959C143.125 219.494 145.245 222.142 144.575 222.95C143.906 223.758 144.908 228.6 144.908 228.6C144.908 228.6 157.272 228.6 162.953 231.253C168.634 233.906 189.574 239.206 192.249 240.817C194.923 242.427 204.839 249.677 204.839 249.677L205.741 236.001C205.741 236.001 195.492 227.239 178.676 222.747C161.86 218.254 152.054 212.072 152.054 212.072Z" fill="#EB5569"/>
<path opacity="0.1" d="M179.678 245.084C179.678 245.084 197.164 264.676 196.273 270.102C195.381 275.528 179.678 245.084 179.678 245.084Z" fill="black"/>
<path opacity="0.1" d="M151.274 315.859C151.274 315.859 138.457 328.082 134.679 328.775C130.902 329.468 137.575 331.772 141.916 329.932C146.258 328.092 155.514 323.25 155.514 323.25L151.274 315.859Z" fill="black"/>
<path d="M245.834 408.176H215.944C211.764 404.423 207.81 400.946 205.292 398.856C201.263 395.51 198.357 390.585 196.504 386.624C196.086 385.722 195.723 384.878 195.416 384.112C194.866 382.792 194.382 381.443 193.966 380.072L216.1 366.469C217.323 367.545 218.473 368.709 219.54 369.95L219.807 370.268C221.036 371.769 222.118 373.474 222.214 374.871C222.325 376.497 226.696 382.788 231.164 388.828C235.696 394.973 240.34 400.847 240.647 401.243C240.647 401.243 241.412 402.322 242.661 403.98C243.543 405.179 244.631 406.617 245.834 408.176Z" fill="#FFB0B1"/>
<path opacity="0.1" d="M205.242 144.111C204.18 146.592 203.228 149.167 203.087 151.93C202.689 159.904 203.334 177.734 194.802 181.737C190.577 183.707 186.054 179.381 181.421 179.277C178.087 179.204 175.03 181.393 172.995 184.13C170.96 186.866 169.696 190.113 168.221 193.209C166.878 196.019 165.33 198.72 163.592 201.288C163.073 202.074 162.501 202.821 161.88 203.524C156.678 201.252 152.046 197.781 148.336 193.376C144.626 188.971 141.937 183.747 140.473 178.104C139.01 172.46 138.81 166.545 139.89 160.81C140.97 155.074 143.301 149.669 146.704 145.007C150.108 140.345 154.496 136.548 159.532 133.907C164.568 131.265 170.121 129.848 175.767 129.764C181.412 129.679 187.002 130.93 192.11 133.42C197.218 135.91 201.71 139.574 205.242 144.132V144.111Z" fill="black"/>
<path d="M202.417 150.523C202.014 158.497 202.664 176.327 194.127 180.325C189.902 182.295 185.379 177.974 180.746 177.87C177.412 177.792 174.36 179.986 172.32 182.717C170.281 185.449 169.027 188.701 167.546 191.802C166.202 194.612 164.655 197.313 162.918 199.881C161.88 201.403 160.732 202.93 159.135 203.785C156.355 205.286 152.986 204.441 150.005 203.477C146.137 202.216 142.326 200.795 138.572 199.214C138.658 198.627 138.702 198.035 138.703 197.441C138.592 197.66 138.472 197.864 138.351 198.083L138.114 198.51C137.686 199.292 137.268 200.074 136.885 200.876C136.739 201.184 136.598 201.502 136.472 201.82C135.966 203.003 135.648 204.263 135.53 205.551C135.274 209.028 136.931 212.327 138.401 215.454C144.057 227.551 147.552 241.697 143.296 254.388C141.453 259.908 138.26 264.812 135.928 270.144C131.852 279.588 130.652 290.093 132.489 300.26C133.652 306.577 135.984 312.831 135.41 319.237C134.402 330.26 125.216 338.464 116.015 344.103C111.044 347.137 104.96 349.837 99.6824 347.439C103.047 343.374 103.913 337.75 104.638 332.444C106.622 317.972 108.612 303.493 110.606 289.007C111.402 283.242 112.196 277.478 112.988 271.713C114.469 260.883 115.97 249.932 115.043 239.034C114.368 231.002 112.464 222.475 115.829 215.204C117.606 211.352 120.774 208.163 121.761 204.014C122.572 200.642 121.817 197.056 122.351 193.621C122.643 192.058 123.137 190.544 123.821 189.118C124.692 187.183 125.828 185.389 127.195 183.791C125.846 183.385 124.587 182.827 123.821 181.659C125.987 180.2 126.314 176.911 125.332 174.441C124.35 171.97 122.386 170.089 120.618 168.139C118.85 166.19 117.148 163.918 116.927 161.259C116.498 156.199 121.384 152.279 122.245 147.286C123.116 142.204 119.671 137.263 119.948 132.119C120.271 125.901 125.79 121.382 131.24 118.76C139.463 114.821 148.546 113.202 157.569 114.07C164.912 114.789 172.018 117.139 179.341 118.052C183.758 118.573 188.235 118.625 192.621 119.428C197.008 120.23 201.405 121.924 204.492 125.255C212.63 134.037 202.88 141.266 202.417 150.523Z" fill="#575A89"/>
<path opacity="0.1" d="M195.608 386.628C193.039 385.476 188.366 386.164 180.343 383.636C172.32 381.108 170.774 369.683 170.774 369.683V369.647C170.678 369.386 169.933 367.687 164.887 361.735C159.312 355.163 147.26 321.967 147.26 321.967C147.26 321.967 136.573 310.089 136.91 305.711C137.248 301.333 135.012 289.684 135.233 276.653C135.455 263.623 159.291 254.982 159.291 254.982C205.187 246.564 194.379 301.322 193.155 305.471C191.931 309.62 198.282 320.826 198.282 320.826C197.386 325.704 201.959 333.256 201.959 333.256C201.959 333.256 203.067 339.938 203.293 342.476C203.306 342.594 203.331 342.709 203.369 342.82C204.104 345.213 210.097 347.381 212.535 348.7C215.098 350.086 223.343 362.188 223.343 362.188C225.12 371.075 198.166 387.795 195.608 386.628Z" fill="black"/>
<path d="M196.943 384.543C194.379 383.386 189.7 384.079 181.683 381.546C173.665 379.013 172.114 367.599 172.114 367.599V367.562C172.023 367.296 171.273 365.603 166.226 359.65C160.651 353.078 148.599 319.877 148.599 319.877C148.599 319.877 137.913 308.004 138.245 303.626C138.577 299.248 136.351 287.599 136.573 274.579C136.795 261.56 160.616 252.923 160.616 252.923C206.511 244.506 195.704 299.264 194.48 303.412C193.256 307.561 199.607 318.767 199.607 318.767C198.71 323.646 203.283 331.198 203.283 331.198C203.283 331.198 204.391 337.88 204.623 340.418C204.631 340.535 204.655 340.651 204.693 340.762C205.429 343.154 211.422 345.322 213.864 346.641C216.423 348.022 224.672 360.13 224.672 360.13C226.46 369.001 199.506 385.721 196.943 384.543Z" fill="#EB5569"/>
<path opacity="0.1" d="M161.522 281.512C161.522 281.512 181.572 303.402 186.805 303.402C192.037 303.402 161.522 281.512 161.522 281.512Z" fill="black"/>
<path d="M196.943 384.544C194.379 383.387 189.7 384.08 181.683 381.547C173.665 379.014 172.114 367.6 172.114 367.6V367.563C177.427 363.915 190.884 353.611 196.187 349.842C199.919 347.2 202.966 343.317 204.749 340.742C205.484 343.135 211.477 345.303 213.92 346.621C216.478 348.003 224.728 360.11 224.728 360.11C226.46 369.002 199.506 385.722 196.943 384.544Z" fill="#FF748E"/>
<g opacity="0.1">
<path opacity="0.1" d="M123.851 181.716C123.876 181.758 123.912 181.794 123.942 181.836C124.093 181.638 124.249 181.44 124.41 181.252C124.239 181.425 124.052 181.58 123.851 181.716Z" fill="black"/>
<path opacity="0.1" d="M135.535 205.609C135.747 202.716 137.243 200.167 138.643 197.624C137.726 197.259 136.81 196.889 135.903 196.503C135.989 195.918 136.033 195.328 136.034 194.736C134.619 197.342 133.078 199.907 132.861 202.841C132.604 206.323 134.261 209.617 135.732 212.744C141.393 224.836 144.883 238.981 140.627 251.678C138.779 257.192 135.591 262.102 133.259 267.434C129.184 276.876 127.986 287.379 129.824 297.544C130.978 303.866 133.314 310.115 132.74 316.521C131.733 327.545 122.552 335.748 113.346 341.383C109.584 343.686 105.187 345.797 100.982 345.646C100.592 346.295 100.158 346.913 99.6824 347.496C104.965 349.91 111.044 347.194 116.015 344.15C125.226 338.521 134.427 330.338 135.435 319.294C136.009 312.888 133.672 306.639 132.514 300.317C130.675 290.153 131.87 279.651 135.938 270.207C138.255 264.88 141.478 259.965 143.306 254.451C147.562 241.754 144.067 227.609 138.411 215.517C136.946 212.369 135.279 209.09 135.535 205.609Z" fill="black"/>
<path opacity="0.1" d="M204.482 125.317C203.986 124.791 203.454 124.303 202.89 123.857C208.994 132.051 200.181 139.014 199.743 147.833C199.35 155.807 199.994 173.643 191.458 177.635C187.238 179.611 182.71 175.285 178.082 175.18C174.743 175.107 171.691 177.302 169.651 180.033C167.611 182.764 166.357 186.016 164.882 189.112C163.535 191.922 161.987 194.622 160.248 197.191C159.241 198.718 158.063 200.24 156.461 201.1C153.691 202.596 150.322 201.757 147.335 200.787C144.431 199.842 141.554 198.8 138.703 197.66C138.697 198.203 138.654 198.745 138.572 199.281C142.329 200.865 146.142 202.287 150.01 203.544C152.991 204.514 156.36 205.353 159.135 203.857C160.732 202.997 161.89 201.47 162.923 199.943C164.662 197.378 166.209 194.679 167.551 191.869C169.032 188.773 170.281 185.516 172.325 182.785C174.37 180.054 177.417 177.865 180.751 177.938C185.384 178.042 189.912 182.368 194.132 180.393C202.669 176.4 202.019 158.564 202.417 150.59C202.88 141.318 212.63 134.094 204.482 125.317Z" fill="black"/>
</g>
<path opacity="0.1" d="M138.119 198.515C137.691 199.297 137.273 200.079 136.89 200.882C136.744 201.189 136.603 201.507 136.477 201.825C133.838 199.073 127.412 192.532 123.826 190.504C124.698 188.57 125.834 186.776 127.2 185.178C127.2 185.178 135.747 189.853 138.119 198.515Z" fill="black"/>
<path d="M138.356 198.088C136.376 188.816 127.2 183.797 127.2 183.797C125.833 185.395 124.697 187.189 123.826 189.124C127.608 191.266 134.579 198.448 136.89 200.882L138.356 198.088Z" fill="#EB5569"/>
<defs>
<linearGradient id="paint0_linear_4_6" x1="368.094" y1="49.9665" x2="368.094" y2="40.3867" gradientUnits="userSpaceOnUse">
<stop stop-color="#808080" stop-opacity="0.25"/>
<stop offset="0.54" stop-color="#808080" stop-opacity="0.12"/>
<stop offset="1" stop-color="#808080" stop-opacity="0.1"/>
</linearGradient>
<linearGradient id="paint1_linear_4_6" x1="231050" y1="343216" x2="231050" y2="23930" gradientUnits="userSpaceOnUse">
<stop stop-color="#808080" stop-opacity="0.25"/>
<stop offset="0.54" stop-color="#808080" stop-opacity="0.12"/>
<stop offset="1" stop-color="#808080" stop-opacity="0.1"/>
</linearGradient>
</defs>
</svg>
