<svg width="65" height="75" viewBox="0 0 65 75" fill="none" xmlns="http://www.w3.org/2000/svg">
<path d="M64.2857 26.0639H42.8571V74.4683H35.7143V52.1278H28.5714V74.4683H21.4286V26.0639H0V18.6171H64.2857V26.0639ZM32.1429 0C34.0373 0 35.8541 0.784574 37.1936 2.18112C38.5332 3.57768 39.2857 5.47181 39.2857 7.44683C39.2857 9.42185 38.5332 11.316 37.1936 12.7125C35.8541 14.1091 34.0373 14.8937 32.1429 14.8937C30.2485 14.8937 28.4316 14.1091 27.0921 12.7125C25.7526 11.316 25 9.42185 25 7.44683C25 3.31384 28.1786 0 32.1429 0Z" fill="#EC5863"/>
</svg>
