<svg width="67" height="75" viewBox="0 0 67 75" fill="none" xmlns="http://www.w3.org/2000/svg">
<path d="M33.3578 0C27.5202 0 24.0259 0.916535 21.8049 2.05934C20.6929 2.63218 19.9035 3.23365 19.3725 3.84945C18.8388 4.46525 18.5025 5.37033 18.5025 5.37033C18.4153 5.60035 18.3574 5.84103 18.3301 6.08637L16.8512 25.6888C16.8318 25.8091 16.8707 26.0038 16.8512 26.1356L16.6789 28.1061C16.6627 28.2843 16.6627 28.4636 16.6789 28.6417C16.6789 38.0935 24.1844 45.8268 33.3578 45.8268C42.5312 45.8268 50.0367 38.0935 50.0367 28.6417V28.1949C50.0371 28.1653 50.0371 28.1357 50.0367 28.1061L48.3855 6.08637C48.3582 5.84103 48.3003 5.60035 48.2131 5.37033C48.2131 5.37033 47.8768 4.46525 47.343 3.84945C46.8121 3.23079 46.0226 2.62931 44.9107 2.05934C42.6896 0.913671 39.1954 0 33.3578 0ZM33.3578 45.8268C15.011 45.8268 0 54.7229 0 62.7426V74.4685H66.7156V62.7426C66.7156 55.1239 53.1445 46.7319 36.0514 45.9156C35.1548 45.8546 34.2564 45.825 33.3578 45.8268ZM33.3578 5.72835C38.6394 5.72835 41.2775 6.5876 42.3922 7.16043C42.7647 7.35233 42.8092 7.4268 42.9148 7.51846L44.0434 22.1973C41.486 22.3577 38.0001 22.9134 33.3578 22.9134C28.7155 22.9134 25.2324 22.3577 22.6722 22.1973L23.8008 7.51846C23.9036 7.4268 23.9509 7.35233 24.3234 7.16043C25.4381 6.5876 28.0761 5.72835 33.3578 5.72835ZM31.0978 8.59252V11.9952H27.7982V16.6494H31.1006V20.0492H35.615V16.6466H38.9174V11.9952H35.615V8.59252H31.1006H31.0978ZM25.0183 52.2712L32.143 68.7402H5.55963V62.7426C5.55963 60.6088 12.6482 54.3591 25.0183 52.2712ZM41.6972 52.2712C54.0674 54.362 61.1559 60.6088 61.1559 62.7426V68.7402H34.5726L41.6972 52.2712Z" fill="#EC5863"/>
</svg>
