<svg width="88" height="75" viewBox="0 0 88 75" fill="none" xmlns="http://www.w3.org/2000/svg">
<path d="M24.0429 0C17.6663 0 11.5509 2.58781 7.04199 7.19414C2.53308 11.8005 0 18.048 0 24.5623C0 26.7953 0.393429 29.0282 0.961715 31.2611H18.7971L24.3489 16.2111C25.6603 12.6384 30.8186 12.2812 32.4797 16.2111L41.5286 40.1929L44.1077 33.8514C44.676 32.3776 46.206 31.2611 48.0857 31.2611H86.4669C87.0352 29.0282 87.4286 26.7953 87.4286 24.5623C87.4286 18.048 84.8955 11.8005 80.3866 7.19414C75.8777 2.58781 69.7623 0 63.3857 0C55.2549 0 48.0857 4.15327 43.7143 10.4502C39.3429 4.15327 32.1737 0 24.0429 0ZM4.37143 37.96C3.21205 37.96 2.10016 38.4305 1.28036 39.268C0.46056 40.1055 0 41.2414 0 42.4258C0 43.6103 0.46056 44.7462 1.28036 45.5837C2.10016 46.4212 3.21205 46.8917 4.37143 46.8917H15.0377L39.3429 71.454C43.7143 75.4733 43.7143 75.4733 48.0857 71.454L72.3909 46.8917H83.0572C84.2165 46.8917 85.3284 46.4212 86.1482 45.5837C86.968 44.7462 87.4286 43.6103 87.4286 42.4258C87.4286 41.2414 86.968 40.1055 86.1482 39.268C85.3284 38.4305 84.2165 37.96 83.0572 37.96H49.8343L45.7689 48.2315C44.0203 52.742 38.9932 52.1168 37.3757 48.3655L28.4143 24.5623L24.2177 34.9678C23.562 36.6649 22.0757 37.96 20.1086 37.96H4.37143Z" fill="#EC5863"/>
</svg>
