<svg width="140" height="42" viewBox="0 0 140 42" fill="none" xmlns="http://www.w3.org/2000/svg">
<path d="M51.462 26.1409C50.322 26.1409 49.338 25.9549 48.51 25.5829C47.694 25.1989 47.058 24.6469 46.602 23.9269C46.158 23.1949 45.912 22.3069 45.864 21.2629C45.852 20.7469 45.846 20.2009 45.846 19.6249C45.846 19.0369 45.852 18.4789 45.864 17.9509C45.912 16.9309 46.164 16.0669 46.62 15.3589C47.076 14.6509 47.718 14.1109 48.546 13.7389C49.374 13.3669 50.346 13.1809 51.462 13.1809C52.362 13.1809 53.16 13.2949 53.856 13.5229C54.552 13.7389 55.134 14.0329 55.602 14.4049C56.082 14.7769 56.442 15.1849 56.682 15.6289C56.934 16.0729 57.066 16.5109 57.078 16.9429C57.09 17.0509 57.054 17.1409 56.97 17.2129C56.898 17.2849 56.808 17.3209 56.7 17.3209H54.072C53.94 17.3209 53.838 17.3029 53.766 17.2669C53.706 17.2189 53.652 17.1529 53.604 17.0689C53.52 16.8889 53.394 16.7029 53.226 16.5109C53.07 16.3069 52.848 16.1329 52.56 15.9889C52.284 15.8449 51.918 15.7729 51.462 15.7729C50.778 15.7729 50.238 15.9529 49.842 16.3129C49.458 16.6729 49.248 17.2489 49.212 18.0409C49.176 19.0729 49.176 20.1169 49.212 21.1729C49.248 22.0129 49.47 22.6189 49.878 22.9909C50.286 23.3629 50.826 23.5489 51.498 23.5489C51.954 23.5489 52.356 23.4709 52.704 23.3149C53.064 23.1589 53.346 22.9189 53.55 22.5949C53.754 22.2589 53.856 21.8329 53.856 21.3169V20.9749H52.164C52.032 20.9749 51.918 20.9329 51.822 20.8489C51.738 20.7529 51.696 20.6389 51.696 20.5069V19.1749C51.696 19.0429 51.738 18.9349 51.822 18.8509C51.918 18.7549 52.032 18.7069 52.164 18.7069H56.7C56.832 18.7069 56.94 18.7549 57.024 18.8509C57.108 18.9349 57.15 19.0429 57.15 19.1749V21.2269C57.15 22.2589 56.916 23.1409 56.448 23.8729C55.98 24.6049 55.314 25.1689 54.45 25.5649C53.598 25.9489 52.602 26.1409 51.462 26.1409ZM63.4451 26.1409C62.4371 26.1409 61.5851 25.9789 60.8891 25.6549C60.2051 25.3309 59.6771 24.8689 59.3051 24.2689C58.9451 23.6569 58.7411 22.9309 58.6931 22.0909C58.6811 21.8509 58.6751 21.5809 58.6751 21.2809C58.6751 20.9689 58.6811 20.6989 58.6931 20.4709C58.7411 19.6189 58.9571 18.8929 59.3411 18.2929C59.7251 17.6929 60.2591 17.2309 60.9431 16.9069C61.6391 16.5829 62.4731 16.4209 63.4451 16.4209C64.4291 16.4209 65.2631 16.5829 65.9471 16.9069C66.6431 17.2309 67.1831 17.6929 67.5671 18.2929C67.9511 18.8929 68.1671 19.6189 68.2151 20.4709C68.2271 20.6989 68.2331 20.9689 68.2331 21.2809C68.2331 21.5809 68.2271 21.8509 68.2151 22.0909C68.1671 22.9309 67.9571 23.6569 67.5851 24.2689C67.2251 24.8689 66.6971 25.3309 66.0011 25.6549C65.3171 25.9789 64.4651 26.1409 63.4451 26.1409ZM63.4451 23.9449C63.9851 23.9449 64.3751 23.7829 64.6151 23.4589C64.8671 23.1349 65.0111 22.6489 65.0471 22.0009C65.0591 21.8209 65.0651 21.5809 65.0651 21.2809C65.0651 20.9809 65.0591 20.7409 65.0471 20.5609C65.0111 19.9249 64.8671 19.4449 64.6151 19.1209C64.3751 18.7849 63.9851 18.6169 63.4451 18.6169C62.9171 18.6169 62.5271 18.7849 62.2751 19.1209C62.0231 19.4449 61.8851 19.9249 61.8611 20.5609C61.8491 20.7409 61.8431 20.9809 61.8431 21.2809C61.8431 21.5809 61.8491 21.8209 61.8611 22.0009C61.8851 22.6489 62.0231 23.1349 62.2751 23.4589C62.5271 23.7829 62.9171 23.9449 63.4451 23.9449Z" fill="black"/>
<path d="M75.3674 26.1409C74.2274 26.1409 73.2494 25.9549 72.4334 25.5829C71.6294 25.2109 70.9994 24.6649 70.5434 23.9449C70.0994 23.2249 69.8534 22.3309 69.8054 21.2629C69.7934 20.7709 69.7874 20.2429 69.7874 19.6789C69.7874 19.1149 69.7934 18.5749 69.8054 18.0589C69.8534 17.0149 70.1054 16.1329 70.5614 15.4129C71.0174 14.6809 71.6534 14.1289 72.4694 13.7569C73.2854 13.3729 74.2514 13.1809 75.3674 13.1809C76.1594 13.1809 76.8914 13.2829 77.5634 13.4869C78.2354 13.6789 78.8234 13.9669 79.3274 14.3509C79.8314 14.7229 80.2214 15.1789 80.4974 15.7189C80.7854 16.2469 80.9354 16.8469 80.9474 17.5189C80.9594 17.6269 80.9234 17.7169 80.8394 17.7889C80.7674 17.8609 80.6774 17.8969 80.5694 17.8969H78.1394C77.9834 17.8969 77.8634 17.8669 77.7794 17.8069C77.6954 17.7349 77.6234 17.6089 77.5634 17.4289C77.3954 16.7929 77.1194 16.3609 76.7354 16.1329C76.3634 15.8929 75.9014 15.7729 75.3494 15.7729C74.6894 15.7729 74.1674 15.9589 73.7834 16.3309C73.3994 16.6909 73.1894 17.2969 73.1534 18.1489C73.1174 19.1329 73.1174 20.1409 73.1534 21.1729C73.1894 22.0249 73.3994 22.6369 73.7834 23.0089C74.1674 23.3689 74.6894 23.5489 75.3494 23.5489C75.9014 23.5489 76.3694 23.4289 76.7534 23.1889C77.1374 22.9489 77.4074 22.5169 77.5634 21.8929C77.6114 21.7129 77.6774 21.5929 77.7614 21.5329C77.8574 21.4609 77.9834 21.4249 78.1394 21.4249H80.5694C80.6774 21.4249 80.7674 21.4609 80.8394 21.5329C80.9234 21.6049 80.9594 21.6949 80.9474 21.8029C80.9354 22.4749 80.7854 23.0809 80.4974 23.6209C80.2214 24.1489 79.8314 24.6049 79.3274 24.9889C78.8234 25.3609 78.2354 25.6489 77.5634 25.8529C76.8914 26.0449 76.1594 26.1409 75.3674 26.1409ZM87.0701 26.1409C86.0621 26.1409 85.2101 25.9789 84.5141 25.6549C83.8301 25.3309 83.3021 24.8689 82.9301 24.2689C82.5701 23.6569 82.3661 22.9309 82.3181 22.0909C82.3061 21.8509 82.3001 21.5809 82.3001 21.2809C82.3001 20.9689 82.3061 20.6989 82.3181 20.4709C82.3661 19.6189 82.5821 18.8929 82.9661 18.2929C83.3501 17.6929 83.8841 17.2309 84.5681 16.9069C85.2641 16.5829 86.0981 16.4209 87.0701 16.4209C88.0541 16.4209 88.8881 16.5829 89.5721 16.9069C90.2681 17.2309 90.8081 17.6929 91.1921 18.2929C91.5761 18.8929 91.7921 19.6189 91.8401 20.4709C91.8521 20.6989 91.8581 20.9689 91.8581 21.2809C91.8581 21.5809 91.8521 21.8509 91.8401 22.0909C91.7921 22.9309 91.5821 23.6569 91.2101 24.2689C90.8501 24.8689 90.3221 25.3309 89.6261 25.6549C88.9421 25.9789 88.0901 26.1409 87.0701 26.1409ZM87.0701 23.9449C87.6101 23.9449 88.0001 23.7829 88.2401 23.4589C88.4921 23.1349 88.6361 22.6489 88.6721 22.0009C88.6841 21.8209 88.6901 21.5809 88.6901 21.2809C88.6901 20.9809 88.6841 20.7409 88.6721 20.5609C88.6361 19.9249 88.4921 19.4449 88.2401 19.1209C88.0001 18.7849 87.6101 18.6169 87.0701 18.6169C86.5421 18.6169 86.1521 18.7849 85.9001 19.1209C85.6481 19.4449 85.5101 19.9249 85.4861 20.5609C85.4741 20.7409 85.4681 20.9809 85.4681 21.2809C85.4681 21.5809 85.4741 21.8209 85.4861 22.0009C85.5101 22.6489 85.6481 23.1349 85.9001 23.4589C86.1521 23.7829 86.5421 23.9449 87.0701 23.9449ZM94.0784 25.9609C93.9464 25.9609 93.8384 25.9189 93.7544 25.8349C93.6704 25.7509 93.6284 25.6429 93.6284 25.5109V17.0509C93.6284 16.9309 93.6704 16.8289 93.7544 16.7449C93.8384 16.6489 93.9464 16.6009 94.0784 16.6009H96.1484C96.2804 16.6009 96.3884 16.6489 96.4724 16.7449C96.5564 16.8289 96.5984 16.9309 96.5984 17.0509V17.7709C96.9224 17.3989 97.3064 17.1109 97.7504 16.9069C98.2064 16.7029 98.7164 16.6009 99.2804 16.6009H100.072C100.192 16.6009 100.294 16.6429 100.378 16.7269C100.474 16.8109 100.522 16.9189 100.522 17.0509V18.9049C100.522 19.0249 100.474 19.1329 100.378 19.2289C100.294 19.3129 100.192 19.3549 100.072 19.3549H98.3264C97.8344 19.3549 97.4504 19.4929 97.1744 19.7689C96.9104 20.0329 96.7784 20.4109 96.7784 20.9029V25.5109C96.7784 25.6429 96.7304 25.7509 96.6344 25.8349C96.5504 25.9189 96.4424 25.9609 96.3104 25.9609H94.0784ZM106.16 26.1409C105.152 26.1409 104.3 25.9789 103.604 25.6549C102.92 25.3309 102.392 24.8689 102.02 24.2689C101.66 23.6569 101.456 22.9309 101.408 22.0909C101.396 21.8509 101.39 21.5809 101.39 21.2809C101.39 20.9689 101.396 20.6989 101.408 20.4709C101.456 19.6189 101.672 18.8929 102.056 18.2929C102.44 17.6929 102.974 17.2309 103.658 16.9069C104.354 16.5829 105.188 16.4209 106.16 16.4209C107.144 16.4209 107.978 16.5829 108.662 16.9069C109.358 17.2309 109.898 17.6929 110.282 18.2929C110.666 18.8929 110.882 19.6189 110.93 20.4709C110.942 20.6989 110.948 20.9689 110.948 21.2809C110.948 21.5809 110.942 21.8509 110.93 22.0909C110.882 22.9309 110.672 23.6569 110.3 24.2689C109.94 24.8689 109.412 25.3309 108.716 25.6549C108.032 25.9789 107.18 26.1409 106.16 26.1409ZM106.16 23.9449C106.7 23.9449 107.09 23.7829 107.33 23.4589C107.582 23.1349 107.726 22.6489 107.762 22.0009C107.774 21.8209 107.78 21.5809 107.78 21.2809C107.78 20.9809 107.774 20.7409 107.762 20.5609C107.726 19.9249 107.582 19.4449 107.33 19.1209C107.09 18.7849 106.7 18.6169 106.16 18.6169C105.632 18.6169 105.242 18.7849 104.99 19.1209C104.738 19.4449 104.6 19.9249 104.576 20.5609C104.564 20.7409 104.558 20.9809 104.558 21.2809C104.558 21.5809 104.564 21.8209 104.576 22.0009C104.6 22.6489 104.738 23.1349 104.99 23.4589C105.242 23.7829 105.632 23.9449 106.16 23.9449ZM113.168 25.9609C113.036 25.9609 112.928 25.9189 112.844 25.8349C112.76 25.7509 112.718 25.6429 112.718 25.5109V17.0509C112.718 16.9189 112.76 16.8109 112.844 16.7269C112.928 16.6429 113.036 16.6009 113.168 16.6009H115.238C115.37 16.6009 115.478 16.6429 115.562 16.7269C115.646 16.8109 115.688 16.9189 115.688 17.0509V17.7349C116 17.3629 116.408 17.0509 116.912 16.7989C117.416 16.5469 118.01 16.4209 118.694 16.4209C119.39 16.4209 120.002 16.5769 120.53 16.8889C121.07 17.2009 121.49 17.6629 121.79 18.2749C122.102 18.8749 122.258 19.6129 122.258 20.4889V25.5109C122.258 25.6429 122.21 25.7509 122.114 25.8349C122.03 25.9189 121.928 25.9609 121.808 25.9609H119.54C119.42 25.9609 119.312 25.9189 119.216 25.8349C119.132 25.7509 119.09 25.6429 119.09 25.5109V20.5969C119.09 20.0329 118.952 19.6009 118.676 19.3009C118.412 18.9889 118.016 18.8329 117.488 18.8329C116.996 18.8329 116.6 18.9889 116.3 19.3009C116.012 19.6009 115.868 20.0329 115.868 20.5969V25.5109C115.868 25.6429 115.82 25.7509 115.724 25.8349C115.64 25.9189 115.538 25.9609 115.418 25.9609H113.168ZM127.075 26.1409C126.427 26.1409 125.845 26.0209 125.329 25.7809C124.825 25.5289 124.423 25.1929 124.123 24.7729C123.823 24.3529 123.673 23.8789 123.673 23.3509C123.673 22.4989 124.021 21.8269 124.717 21.3349C125.413 20.8309 126.337 20.4889 127.489 20.3089L129.739 19.9669V19.7149C129.739 19.2829 129.649 18.9529 129.469 18.7249C129.289 18.4969 128.959 18.3829 128.479 18.3829C128.143 18.3829 127.867 18.4489 127.651 18.5809C127.447 18.7129 127.285 18.8929 127.165 19.1209C127.057 19.2769 126.907 19.3549 126.715 19.3549H124.699C124.567 19.3549 124.465 19.3189 124.393 19.2469C124.321 19.1629 124.291 19.0669 124.303 18.9589C124.303 18.7429 124.381 18.4969 124.537 18.2209C124.705 17.9329 124.957 17.6509 125.293 17.3749C125.629 17.0989 126.061 16.8709 126.589 16.6909C127.117 16.5109 127.753 16.4209 128.497 16.4209C129.277 16.4209 129.943 16.5109 130.495 16.6909C131.047 16.8709 131.491 17.1229 131.827 17.4469C132.175 17.7709 132.433 18.1549 132.601 18.5989C132.769 19.0309 132.853 19.5109 132.853 20.0389V25.5109C132.853 25.6429 132.805 25.7509 132.709 25.8349C132.625 25.9189 132.523 25.9609 132.403 25.9609H130.315C130.183 25.9609 130.075 25.9189 129.991 25.8349C129.907 25.7509 129.865 25.6429 129.865 25.5109V24.8809C129.709 25.1089 129.499 25.3189 129.235 25.5109C128.971 25.7029 128.659 25.8529 128.299 25.9609C127.951 26.0809 127.543 26.1409 127.075 26.1409ZM127.921 24.0889C128.269 24.0889 128.581 24.0169 128.857 23.8729C129.145 23.7169 129.367 23.4829 129.523 23.1709C129.691 22.8469 129.775 22.4449 129.775 21.9649V21.7129L128.245 21.9829C127.681 22.0789 127.267 22.2289 127.003 22.4329C126.751 22.6249 126.625 22.8529 126.625 23.1169C126.625 23.3209 126.685 23.4949 126.805 23.6389C126.925 23.7829 127.081 23.8969 127.273 23.9809C127.465 24.0529 127.681 24.0889 127.921 24.0889Z" fill="#EC5863"/>
<path d="M14.3704 6.61248C15.8121 6.08069 17.3809 6.75156 17.8739 8.11025C18.2512 9.1505 17.8879 10.2915 17.0513 11.0083L17.4833 12.2458L18.1847 13.0735C18.3448 13.2629 18.5901 13.3512 18.8375 13.3171C19.5045 13.2248 20.1664 13.2129 20.8136 13.2738C21.0329 13.2947 21.2523 13.2178 21.4119 13.0596L21.9318 12.5462L22.3244 11.4177C22.0078 10.9714 21.9061 10.376 22.1041 9.80638C22.4401 8.84081 23.5051 8.33002 24.4419 8.71125C25.2489 9.03925 25.6789 9.95299 25.4308 10.8118C25.2732 11.3589 24.8863 11.7722 24.4138 11.9804L23.9791 13.231L24.0663 13.9157C24.0962 14.1511 24.2311 14.3553 24.4303 14.4761C25.1 14.8847 25.7136 15.3867 26.2505 15.9694C26.4309 16.1656 26.7027 16.2471 26.9656 16.1898L28.3187 15.8958L29.8542 15.0138C29.8716 14.2496 30.2815 13.5055 30.9919 13.0975C32.0659 12.4809 33.4116 12.868 33.9663 13.9646C34.467 14.9539 34.1294 16.2101 33.1926 16.8356C32.461 17.3231 31.5758 17.3173 30.8974 16.9182L29.3528 17.8049L28.4848 18.7433C28.2518 18.9951 28.1655 19.348 28.2492 19.6762C28.2497 19.6782 28.25 19.6795 28.2505 19.6814C28.3936 20.247 28.4776 20.8162 28.5083 21.3812C28.526 21.7178 28.7094 22.0184 29.0003 22.1755L30.1107 22.7749L32.3212 23.1715C32.7161 22.8197 33.2562 22.645 33.8047 22.7429C34.7882 22.9196 35.4106 23.9055 35.1456 24.9098C34.9178 25.7699 34.082 26.3514 33.2168 26.2506C32.6268 26.1818 32.1542 25.8261 31.9039 25.3428L29.6791 24.944L28.3014 25.1327C28.0474 25.1681 27.8241 25.3326 27.7177 25.5707C27.2946 26.5104 26.7161 27.3771 26.0057 28.1281C25.8292 28.3147 25.7606 28.5794 25.8208 28.8256L26.146 30.1661L26.9733 31.4999C27.9035 31.346 28.8645 31.7412 29.3898 32.5884C30.0961 33.7265 29.7505 35.2504 28.62 36.0057C27.4902 36.7607 25.9692 36.4587 25.2486 35.335C24.7441 34.5485 24.7506 33.5697 25.1771 32.7877L24.2988 31.3721L23.2085 30.4656C23.0471 30.3306 22.8253 30.2973 22.6253 30.372C22.4033 30.4551 22.1772 30.5297 21.946 30.5953C20.6899 30.9518 19.4271 31.0123 18.2291 30.8202C18.0535 30.7925 17.8729 30.8458 17.7367 30.9662L17.1391 31.4961L16.6859 32.6023C16.9775 33.0669 17.0461 33.6675 16.8176 34.2256C16.4294 35.1727 15.3396 35.6234 14.4267 35.1897C13.6406 34.8162 13.2616 33.8783 13.5559 33.0334C13.7433 32.4952 14.1509 32.1038 14.6336 31.9224L15.1357 30.6963L15.0585 29.6263C14.1871 29.079 13.4143 28.372 12.7857 27.5327L11.2816 27.7032L9.86677 28.4283C9.86407 29.3865 9.36742 30.3049 8.51004 30.7574C7.29853 31.3964 5.82666 30.8643 5.22291 29.5682C4.61933 28.2728 5.1113 26.7046 6.3228 26.0656C7.22942 25.5872 8.28123 25.7647 9.00639 26.4277L10.3407 25.7435L11.2733 24.7284C11.3343 24.6619 11.3577 24.5694 11.3359 24.4834L11.3356 24.4821C10.9302 22.879 10.9937 21.2522 11.4389 19.752C11.4628 19.6696 11.4467 19.5814 11.3932 19.5169L10.6112 18.5638L8.91197 17.6742C8.43823 17.8911 7.8797 17.8979 7.39174 17.6422C6.51023 17.1802 6.20454 16.0475 6.74439 15.1585C7.21832 14.379 8.21102 14.0723 9.00927 14.4582C9.52597 14.7079 9.8554 15.1832 9.94797 15.7126L11.6472 16.6021L12.8633 16.7025C12.9477 16.7097 13.0305 16.6723 13.085 16.6049C13.6457 15.9046 14.3107 15.2843 15.0636 14.7727C15.2702 14.6316 15.4004 14.4006 15.4067 14.1508L15.4332 13.0279L14.9724 11.7092C13.9387 11.6472 13.0107 11.023 12.6521 10.035C12.1592 8.67629 12.9286 7.14363 14.3704 6.61248Z" fill="#EC5863"/>
<path d="M26.0557 20.3086C25.1754 16.8275 21.6584 14.8011 18.2002 15.7826C14.742 16.7641 12.6522 20.3818 13.5325 23.8629C14.4128 27.344 17.9299 29.3704 21.3881 28.3889C24.8463 27.4074 26.9361 23.7897 26.0557 20.3086Z" fill="#F58A97"/>
<path d="M20.9369 26.5C17.8241 27.3717 14.6506 25.7727 13.4174 22.8703C13.4505 23.1972 13.5084 23.5254 13.5923 23.8525C14.4861 27.3394 17.9952 29.3863 21.4302 28.4243C24.8652 27.4624 26.9251 23.8561 26.0312 20.3692C25.9474 20.042 25.8405 19.7276 25.7128 19.4271C26.0331 22.5851 24.0496 25.6283 20.9369 26.5Z" fill="#F07281"/>
<path d="M11.3401 35.895C11.088 34.9021 10.0864 34.3224 9.10309 34.6003C8.11978 34.8782 7.52707 35.9085 7.77924 36.9014C8.03141 37.8943 9.03297 38.4739 10.0163 38.196C10.9996 37.9181 11.5923 36.8879 11.3401 35.895Z" fill="#EB5569"/>
<path d="M34.1212 30.1517C33.9547 29.4959 33.2931 29.113 32.6436 29.2966C31.9941 29.4801 31.6027 30.1606 31.7692 30.8164C31.9358 31.4722 32.5973 31.8551 33.2468 31.6715C33.8963 31.488 34.2878 30.8075 34.1212 30.1517Z" fill="#EB5569"/>
<path d="M30.8585 7.45931C30.6132 6.49331 29.6388 5.92939 28.6821 6.19976C27.7255 6.47013 27.1488 7.4724 27.3942 8.4384C27.6395 9.4044 28.6139 9.96832 29.5706 9.69795C30.5272 9.42758 31.1038 8.42531 30.8585 7.45931Z" fill="#EB5569"/>
<path d="M20.21 24.0561C19.9812 23.1555 19.0728 22.6298 18.1809 22.8818C17.289 23.1339 16.7514 24.0683 16.9801 24.9689C17.2089 25.8695 18.1173 26.3953 19.0092 26.1432C19.9011 25.8911 20.4387 24.9567 20.21 24.0561Z" fill="#EB5569"/>
<path d="M24.3203 21.5116C24.1647 20.8988 23.5466 20.5411 22.9397 20.7127C22.3327 20.8842 21.9669 21.52 22.1225 22.1327C22.2781 22.7455 22.8963 23.1031 23.5032 22.9316C24.1101 22.7601 24.4759 22.1243 24.3203 21.5116Z" fill="#EB5569"/>
<path d="M19.9656 18.9413C19.8349 18.4268 19.3159 18.1264 18.8062 18.2704C18.2966 18.4145 17.9894 18.9483 18.1201 19.4629C18.2508 19.9774 18.7698 20.2778 19.2795 20.1337C19.7891 19.9897 20.0963 19.4558 19.9656 18.9413Z" fill="#EB5569"/>
</svg>
